<?xml version="1.0" encoding="utf-8"?>
<!-- Generator: Adobe Illustrator 27.0.1, SVG Export Plug-In . SVG Version: 6.00 Build 0)  -->
<svg version="1.1" id="레이어_1"
    xmlns="http://www.w3.org/2000/svg"
    xmlns:xlink="http://www.w3.org/1999/xlink" x="0px" y="0px" viewBox="0 0 472.3 254.1" style="enable-background:new 0 0 472.3 254.1;" xml:space="preserve">
    <style type="text/css">
	.st0{fill:#364A5F;}
	.st1{fill:#E65F55;}
	.st2{fill:#595F66;}
	.st3{fill:#FFFFFF;}
    </style>
    <g>
        <g>
            <g>
                <g>
                    <path class="st0" d="M236.2,201.2c-6.9,0-13.2,2.7-17.9,7l-35.1-26.8c6.6-15.5-15.2-27.7-24.9-14.1L133.7,156
					c1.9-24.4-27.5-41.1-47.5-27.4l-6.4-33.4C85.7,93.5,90.3,89,92,83.2l42.4,18.3c-5.5,19.8,20.2,35.5,35.4,21.9l31.3,21.7
					c-7.8,30.4,39.6,37.3,40.8,5.9c0.7-20.8-29.2-28.5-38.8-10.4l-29.9-20.8c3.4-4.3,5.1-10.2,4.4-15.9l12.6-1.8
					c6.8,17.8,34.6,12.7,34.3-6.7c-0.6-24.7-37.7-22.6-35.5,2l-12.5,1.8c-2-5.6-6.1-10.1-11.5-12.6l21.3-38.3
					c21.5,1,22.4-31.4,0.9-31.8c-17.4-0.2-21.9,24.8-5.8,30.8l-21.1,37.8c-9.2-2.1-19.1,2.6-23.5,10.4L92.7,76.5
					c-0.6-6.7-4.8-12.3-10.7-14.9l3.8-38C100.9,23,100.5,0.1,85.3,0c-13.7-0.3-16,20.5-2.8,23.3l-3.7,37.3C72,59,64.5,62,60.6,67.5
					l-12.8-9.4c11.6-21.1-24.4-31.5-26-7.5c-0.4,12.2,15.7,18.8,24,10L59,70.2C53.3,81,61.3,95,73.4,95.8l7.2,37.4
					c-5.4,5.7-8.9,13.5-8.7,21.9L34,161.3c-7.5-17-34.3-11.3-34,7.5c0.9,26.4,40.8,21.4,35.1-4.4l37-6c1.2,9.9,7,18.3,15.2,23.1
					l-14.5,15.2c-33.7-14.6-46.8,39.9-10.1,42.2c19.6,0.7,29.9-25.6,15.4-38.4l15.4-16.1c16.5,5.5,35.1-5.2,39.1-21.6l23,10.6
					c-3,13.1,14.1,22.7,23.7,13.5l34.7,26.5c-11.7,16.7,1.5,41.6,22.1,41C270.9,253.5,270.9,201.8,236.2,201.2z"/>
                    <path class="st0" d="M0,168.8c0.9,26.4,40.8,21.4,35.1-4.4l37-6c1.2,9.9,7,18.3,15.2,23.1l-14.5,15.2
					c-33.7-14.6-46.8,39.9-10.1,42.2c19.6,0.7,29.9-25.6,15.4-38.4l15.4-16.1c16.5,5.5,35.1-5.2,39.1-21.6l23,10.6
					c-3,13.1,14.1,22.7,23.7,13.5l34.7,26.5c-11.7,16.7,1.5,41.6,22.1,41c34.8-0.6,34.7-52.3,0-52.9c-6.9,0-13.2,2.7-17.9,7
					l-35.1-26.8c6.6-15.5-15.2-27.7-24.9-14.1L133.7,156c1.9-24.4-27.5-41.1-47.5-27.4l-6.4-33.4C85.7,93.5,90.3,89,92,83.2
					l42.4,18.3c-5.5,19.8,20.2,35.5,35.4,21.9l31.3,21.7c-7.8,30.4,39.6,37.3,40.8,5.9c0.7-20.8-29.2-28.5-38.8-10.4l-29.9-20.8
					c3.4-4.3,5.1-10.2,4.4-15.9l12.6-1.8c6.8,17.8,34.6,12.7,34.3-6.7c-0.6-24.7-37.7-22.6-35.5,2l-12.5,1.8
					c-2-5.6-6.1-10.1-11.5-12.6l21.3-38.3c21.5,1,22.4-31.4,0.9-31.8c-17.4-0.2-21.9,24.8-5.8,30.8l-21.1,37.8
					c-9.2-2.1-19.1,2.6-23.5,10.4L92.7,76.5c-0.6-6.7-4.8-12.3-10.7-14.9l3.8-38C100.9,23,100.5,0.1,85.3,0
					c-13.7-0.3-16,20.5-2.8,23.3l-3.7,37.3C72,59,64.5,62,60.6,67.5l-12.8-9.4c11.6-21.1-24.4-31.5-26-7.5
					c-0.4,12.2,15.7,18.8,24,10L59,70.2C53.3,81,61.3,95,73.4,95.8l7.2,37.4c-5.4,5.7-8.9,13.5-8.7,21.9L34,161.3
					C26.5,144.3-0.3,149.9,0,168.8z"/>
                </g>
            </g>
        </g>
        <circle class="st1" cx="102.5" cy="155.6" r="32"/>
        <g>
            <g>
                <g>
                    <path class="st2" d="M126.3,211.5c-1.1,0-2.1-0.2-3.1-0.6c-1-0.4-1.8-1-2.5-1.7c-0.7-0.7-1.3-1.5-1.7-2.5c-0.4-1-0.6-2-0.6-3.1
					V151c0-1.1,0.2-2.1,0.6-3.1c0.4-0.9,0.9-1.8,1.6-2.5c0.7-0.7,1.6-1.3,2.5-1.7c1-0.4,2-0.6,3.1-0.6h31.5c4.1,0,8,0.7,11.5,2.2
					c3.5,1.4,6.6,3.5,9.2,6c2.6,2.6,4.6,5.7,6.1,9.2c1.5,3.5,2.2,7.4,2.2,11.6v10.5c0,4.2-0.7,8.1-2.2,11.6
					c-1.5,3.5-3.5,6.6-6.1,9.2c-2.6,2.6-5.7,4.6-9.2,6c-3.5,1.4-7.4,2.2-11.5,2.2H126.3z M157.9,195.9c2,0,3.9-0.3,5.5-1
					c1.6-0.6,3-1.5,4.2-2.7c1.1-1.1,2-2.5,2.7-4.1c0.6-1.6,1-3.5,1-5.5v-10.5c0-2-0.3-3.9-1-5.5c-0.6-1.6-1.5-3-2.7-4.1
					c-1.1-1.1-2.5-2-4.2-2.7c-1.6-0.6-3.5-1-5.5-1h-23.7v37.1H157.9z"/>
                    <path class="st3" d="M157.9,145.1c3.9,0,7.4,0.7,10.7,2c3.3,1.3,6.1,3.2,8.5,5.6c2.4,2.4,4.3,5.2,5.6,8.5c1.4,3.3,2,6.9,2,10.8
					v10.5c0,3.9-0.7,7.5-2,10.8c-1.4,3.3-3.2,6.1-5.6,8.5c-2.4,2.4-5.2,4.2-8.5,5.6c-3.3,1.3-6.9,2-10.7,2h-31.5
					c-0.8,0-1.6-0.1-2.3-0.4c-0.7-0.3-1.3-0.7-1.9-1.2c-0.5-0.5-0.9-1.1-1.2-1.9c-0.3-0.7-0.4-1.5-0.4-2.3V151
					c0-0.8,0.1-1.6,0.4-2.3c0.3-0.7,0.7-1.3,1.2-1.9c0.5-0.5,1.1-1,1.9-1.3c0.7-0.3,1.5-0.4,2.3-0.4H157.9 M132.1,197.9h25.7
					c2.3,0,4.3-0.4,6.2-1.1c1.9-0.7,3.5-1.8,4.8-3.1c1.3-1.3,2.4-2.9,3.1-4.8c0.7-1.9,1.1-4,1.1-6.3v-10.5c0-2.3-0.4-4.4-1.1-6.2
					c-0.7-1.9-1.8-3.5-3.1-4.8c-1.3-1.3-3-2.4-4.8-3.1c-1.9-0.7-3.9-1.1-6.2-1.1h-25.7V197.9 M157.9,141.1h-31.5
					c-1.4,0-2.7,0.3-3.9,0.8c-1.2,0.5-2.3,1.2-3.2,2.2c-0.9,0.9-1.6,2-2.1,3.1c-0.5,1.2-0.8,2.5-0.8,3.8v52.6c0,1.4,0.3,2.7,0.8,3.9
					c0.5,1.2,1.2,2.3,2.1,3.2c0.9,0.9,2,1.6,3.2,2.1c1.2,0.5,2.5,0.8,3.9,0.8h31.5c4.4,0,8.5-0.8,12.3-2.3c3.8-1.5,7.1-3.7,9.8-6.5
					c2.8-2.7,5-6,6.5-9.8c1.6-3.8,2.3-7.9,2.3-12.4v-10.5c0-4.4-0.8-8.5-2.3-12.3c-1.6-3.8-3.8-7.1-6.5-9.8
					c-2.8-2.7-6.1-4.9-9.8-6.5C166.3,141.9,162.2,141.1,157.9,141.1L157.9,141.1z M136.1,160.8h21.7c1.8,0,3.4,0.3,4.8,0.8
					c1.4,0.5,2.5,1.3,3.5,2.2c1,0.9,1.7,2.1,2.2,3.4c0.5,1.4,0.8,3,0.8,4.8v10.5c0,1.8-0.3,3.4-0.8,4.8c-0.5,1.4-1.3,2.5-2.2,3.4
					c-1,1-2.1,1.7-3.5,2.2c-1.4,0.5-3,0.8-4.8,0.8h-21.7V160.8L136.1,160.8z"/>
                </g>
                <g>
                    <polygon class="st2" points="245,211.5 245,185.2 208,185.2 208,211.5 192.3,211.5 192.3,143.1 208,143.1 208,169.4 245,169.4 
					245,143.1 260.7,143.1 260.7,211.5 				"/>
                    <path class="st3" d="M258.7,145.1v64.4H247v-26.3h-41v26.3h-11.7v-64.4H206v26.3h41v-26.3H258.7 M262.7,141.1h-4H247h-4v4v22.3
					h-33v-22.3v-4h-4h-11.7h-4v4v64.4v4h4H206h4v-4v-22.3h33v22.3v4h4h11.7h4v-4v-64.4V141.1L262.7,141.1z"/>
                </g>
                <g>
                    <path class="st2" d="M284.1,211.5c-1.8,0-3.8-0.3-5.9-0.9c-2.2-0.6-4.2-1.7-6-3.2c-1.8-1.5-3.4-3.4-4.6-5.7
					c-1.2-2.4-1.9-5.2-1.9-8.6v-15.8c0-1.2,0.1-2.6,0.4-3.9c0.3-1.4,0.7-2.7,1.3-4.1c0.6-1.4,1.4-2.7,2.3-3.9c1-1.3,2.2-2.4,3.5-3.3
					c1.4-0.9,3-1.7,4.7-2.3c1.8-0.6,3.8-0.9,6-0.9h33.7v15.7h-33.7c-1,0-1.7,0.2-2.1,0.6c-0.5,0.5-0.6,1.4-0.6,2.2v15.7
					c0,1,0.2,1.7,0.6,2.1s1.1,0.6,2.1,0.6h33.6v15.7H284.1z"/>
                    <path class="st3" d="M315.8,161v11.7h-31.7c-1.5,0-2.7,0.4-3.5,1.2c-0.8,0.8-1.2,2-1.2,3.6v15.7c0,1.5,0.4,2.7,1.2,3.5
					s2,1.2,3.5,1.2h31.6v11.7h-31.7c-1.6,0-3.4-0.3-5.3-0.9c-1.9-0.6-3.7-1.5-5.3-2.8c-1.6-1.3-3-3-4.1-5.1
					c-1.1-2.1-1.6-4.6-1.6-7.7v-15.8c0-1.1,0.1-2.3,0.4-3.5c0.3-1.2,0.7-2.4,1.2-3.7s1.2-2.4,2.1-3.5c0.9-1.1,1.9-2.1,3.1-2.9
					c1.2-0.8,2.6-1.5,4.2-2c1.6-0.5,3.4-0.8,5.4-0.8H315.8 M319.8,157h-4h-31.7c-2.4,0-4.6,0.3-6.6,1c-2,0.6-3.7,1.5-5.3,2.5
					c-1.5,1.1-2.9,2.3-4,3.8c-1,1.4-1.9,2.8-2.6,4.3c-0.7,1.5-1.1,3-1.5,4.5c-0.3,1.5-0.5,2.9-0.5,4.3v15.8c0,3.7,0.7,6.9,2.1,9.5
					c1.3,2.6,3.1,4.7,5.1,6.3c2,1.6,4.3,2.8,6.7,3.5c2.3,0.7,4.4,1,6.4,1h31.7h4v-4v-11.7v-4h-4h-31.6c-0.4,0-0.6,0-0.7-0.1
					c0-0.1-0.1-0.3-0.1-0.6v-15.7c0-0.3,0-0.6,0.1-0.7c0.1,0,0.3-0.1,0.6-0.1h31.7h4v-4V161V157L319.8,157z"/>
                </g>
                <g>
                    <path class="st2" d="M367,211.5v-34.2c0-1-0.2-1.7-0.6-2.1c-0.4-0.4-1.1-0.6-2.1-0.6h-23.1V159h23.1c1.2,0,2.5,0.1,3.9,0.4
					c1.4,0.3,2.7,0.7,4.1,1.3c1.4,0.6,2.7,1.4,3.9,2.3c1.3,1,2.4,2.2,3.3,3.5c0.9,1.4,1.7,3,2.3,4.7c0.6,1.8,0.9,3.8,0.9,6v34.2H367
					z M324.9,211.5v-73.1h15.7v73.1H324.9z"/>
                    <path class="st3" d="M338.6,140.5v69.1h-11.7v-69.1H338.6 M364.3,161c1.1,0,2.3,0.1,3.5,0.4c1.2,0.3,2.4,0.7,3.7,1.2
					s2.4,1.2,3.5,2.1c1.1,0.9,2.1,1.9,2.9,3.1c0.8,1.2,1.5,2.6,2,4.2c0.5,1.6,0.8,3.4,0.8,5.4v32.2H369v-32.2c0-1.5-0.4-2.7-1.2-3.5
					c-0.8-0.8-1.9-1.2-3.5-1.2h-21.1V161H364.3 M342.6,136.5h-4h-11.7h-4v4v69.1v4h4h11.7h4v-4v-32.9h0.7h21.1c0.3,0,0.5,0,0.6,0.1
					c0,0.1,0.1,0.3,0.1,0.6v32.2v4h4h11.7h4v-4v-32.2c0-2.4-0.3-4.6-1-6.6c-0.6-2-1.5-3.7-2.5-5.3c-1.1-1.5-2.3-2.9-3.8-4
					c-1.4-1-2.8-1.9-4.3-2.6c-1.5-0.7-3-1.1-4.5-1.5c-1.5-0.3-2.9-0.5-4.3-0.5h-21.1h-0.7v-16.5V136.5L342.6,136.5z"/>
                </g>
                <g>
                    <path class="st2" d="M406.3,209.2c-1.8,0-3.8-0.3-5.9-0.9c-2.2-0.6-4.2-1.7-6-3.2c-1.8-1.5-3.4-3.4-4.6-5.7
					c-1.2-2.4-1.9-5.2-1.9-8.6V175c0-3.3,0.6-6.2,1.9-8.5c1.2-2.3,2.8-4.2,4.6-5.7c1.8-1.5,3.8-2.5,6-3.2c2.1-0.6,4.1-0.9,5.9-0.9
					h21.1c3.3,0,6.2,0.6,8.6,1.8c2.3,1.2,4.3,2.8,5.7,4.6c1.4,1.8,2.5,3.8,3.2,6c0.6,2.1,1,4.1,1,5.9v15.8c0,2.2-0.3,4.2-0.9,6
					c-0.6,1.8-1.3,3.4-2.3,4.8c-1,1.4-2.1,2.6-3.3,3.5c-1.2,0.9-2.5,1.7-3.9,2.3c-1.3,0.6-2.7,1-4.1,1.3c-1.4,0.3-2.7,0.4-3.9,0.4
					H406.3z M406.4,172.3c-1,0-1.7,0.2-2.1,0.6c-0.4,0.4-0.6,1.1-0.6,2.1v15.8c0,1,0.2,1.7,0.6,2.1s1.1,0.6,2.1,0.6h21
					c1,0,1.7-0.2,2.1-0.6c0.4-0.4,0.6-1.1,0.6-2.1v-15.7c0-0.7-0.1-1.7-0.6-2.2c-0.4-0.4-1.1-0.6-2.1-0.6H406.4z"/>
                    <path class="st3" d="M427.4,158.6c3,0,5.5,0.5,7.6,1.6c2.1,1.1,3.8,2.4,5.1,4.1c1.3,1.6,2.2,3.4,2.8,5.3
					c0.6,1.9,0.9,3.7,0.9,5.3v15.8c0,2-0.3,3.8-0.8,5.4c-0.5,1.6-1.2,3-2,4.2c-0.8,1.2-1.8,2.2-2.9,3.1c-1.1,0.9-2.3,1.5-3.5,2.1
					s-2.4,0.9-3.7,1.2c-1.2,0.3-2.4,0.4-3.5,0.4h-21.1c-1.6,0-3.4-0.3-5.3-0.9c-1.9-0.6-3.7-1.5-5.3-2.8c-1.6-1.3-3-3-4.1-5.1
					c-1.1-2.1-1.6-4.6-1.6-7.7V175c0-3,0.5-5.5,1.6-7.6c1.1-2.1,2.5-3.8,4.1-5.1c1.6-1.3,3.4-2.2,5.3-2.8c1.9-0.6,3.7-0.9,5.3-0.9
					H427.4 M406.4,195.5h21c1.6,0,2.8-0.4,3.5-1.2c0.8-0.8,1.2-2,1.2-3.5v-15.7c0-1.6-0.4-2.8-1.2-3.6c-0.8-0.8-2-1.2-3.5-1.2h-21
					c-1.6,0-2.7,0.4-3.5,1.2c-0.8,0.8-1.2,2-1.2,3.5v15.8c0,1.5,0.4,2.7,1.2,3.5S404.8,195.5,406.4,195.5 M427.4,154.6h-21.1
					c-2,0-4.2,0.3-6.4,1c-2.4,0.7-4.7,1.9-6.7,3.5c-2.1,1.6-3.8,3.8-5.1,6.3c-1.4,2.7-2.1,5.8-2.1,9.5v15.8c0,3.7,0.7,6.9,2.1,9.5
					c1.3,2.6,3.1,4.7,5.1,6.3c2,1.6,4.3,2.8,6.7,3.5c2.3,0.7,4.4,1,6.4,1h21.1c1.4,0,2.8-0.2,4.3-0.5c1.5-0.3,3-0.8,4.5-1.5
					c1.5-0.7,2.9-1.5,4.3-2.6c1.4-1.1,2.7-2.4,3.8-4c1.1-1.5,1.9-3.3,2.5-5.3c0.6-2,1-4.2,1-6.6V175c0-2-0.4-4.2-1-6.5
					c-0.7-2.4-1.9-4.6-3.5-6.6c-1.6-2.1-3.8-3.8-6.4-5.1C434.2,155.3,431,154.6,427.4,154.6L427.4,154.6z M405.7,174.4
					c0.1,0,0.3-0.1,0.7-0.1h21c0.3,0,0.5,0,0.7,0.1c0,0.1,0.1,0.4,0.1,0.7v15.7c0,0.3,0,0.5-0.1,0.7c-0.1,0-0.3,0.1-0.7,0.1h-21
					c-0.4,0-0.6,0-0.7-0.1c0-0.1-0.1-0.3-0.1-0.6V175C405.6,174.7,405.6,174.5,405.7,174.4L405.7,174.4z"/>
                </g>
                <g>
                    <path class="st2" d="M454.6,209.2v-52.6h15.7v52.6H454.6z M454.6,150.7v-14.6h15.7v14.6H454.6z"/>
                    <path class="st3" d="M468.3,138.1v10.6h-11.7v-10.6H468.3 M468.3,158.6v48.6h-11.7v-48.6H468.3 M472.3,134.1h-4h-11.7h-4v4v10.6
					v4h4h11.7h4v-4v-10.6V134.1L472.3,134.1z M472.3,154.6h-4h-11.7h-4v4v48.6v4h4h11.7h4v-4v-48.6V154.6L472.3,154.6z"/>
                </g>
            </g>
        </g>
    </g>
</svg>
